<?xml version="1.0" encoding="utf-8"?>
<!-- Generator: Adobe Illustrator 26.5.0, SVG Export Plug-In . SVG Version: 6.00 Build 0)  -->
<svg version="1.1" id="Layer_1" xmlns="http://www.w3.org/2000/svg" xmlns:xlink="http://www.w3.org/1999/xlink" x="0px" y="0px"
	 viewBox="0 0 100 24" style="enable-background:new 0 0 100 24;" xml:space="preserve">
<style type="text/css">
	.st0{fill:#FFFFFF;}
</style>
<path class="st0" d="M6.4,0H0v16.4c0,2,0.8,3.9,2.3,5.3C3.7,23.2,5.7,24,7.8,24h20.4v-5.4H6.4V0z"/>
<path class="st0" d="M63.6,10.2V7.6c0-2-0.8-3.9-2.3-5.3C59.9,0.8,57.9,0,55.9,0H29v24h6.4v-6.3h20.4c2.1,0,4-0.8,5.5-2.2
	C62.8,14.1,63.6,12.2,63.6,10.2z M35.5,6.3h21.7v5.2H35.5L35.5,6.3z"/>
<path class="st0" d="M92.2,8.9H70.7V6.3h28.1V0H72c-1,0-2,0.2-3,0.6c-0.9,0.4-1.8,0.9-2.5,1.6c-0.7,0.7-1.3,1.5-1.7,2.5
	c-0.4,0.9-0.6,1.9-0.6,2.9s0.2,2,0.6,2.9c0.4,0.9,1,1.8,1.7,2.5c0.7,0.7,1.6,1.3,2.5,1.6c0.9,0.4,1.9,0.6,3,0.6h21.6v3.5H36.4V24
	h55.9c2.1,0,4-0.8,5.5-2.2c1.5-1.4,2.3-3.3,2.3-5.3c0-2-0.8-3.9-2.3-5.3C96.3,9.7,94.3,8.9,92.2,8.9z"/>
</svg>
